<?xml version="1.0" encoding="utf-8"?>
<!-- Generator: Adobe Illustrator 24.0.1, SVG Export Plug-In . SVG Version: 6.00 Build 0)  -->
<svg version="1.1" id="Layer_1" xmlns="http://www.w3.org/2000/svg" xmlns:xlink="http://www.w3.org/1999/xlink" x="0px" y="0px"
	 viewBox="0 0 45 40" style="enable-background:new 0 0 45 40;" xml:space="preserve">
<style type="text/css">
	.st0{fill:#FFFFFF;}
</style>
<g id="XMLID_118_">
	<g>
		<g id="XMLID_56_">
			<path id="XMLID_57_" class="st0" d="M3.3,36.23H0.74V7.68c0-4.07,3.31-7.38,7.38-7.38h31.11v2.57H8.11
				c-2.65,0-4.81,2.16-4.81,4.81V36.23z"/>
		</g>
		<polygon id="XMLID_55_" class="st0" points="38.2,28.53 35.63,28.53 35.63,25.96 33.07,25.96 33.07,28.53 30.5,28.53 30.5,31.09 
			33.07,31.09 33.07,33.66 35.63,33.66 35.63,31.09 38.2,31.09 		"/>
		<polygon id="XMLID_54_" class="st0" points="30.24,13.13 27.68,13.13 27.68,10.57 25.11,10.57 25.11,13.13 17.41,13.13 
			17.41,10.57 14.85,10.57 14.85,13.13 7.15,13.13 7.15,15.7 14.85,15.7 14.85,20.83 7.15,20.83 7.15,23.4 14.85,23.4 14.85,28.53 
			7.15,28.53 7.15,31.09 14.85,31.09 14.85,33.66 17.41,33.66 17.41,31.09 19.98,31.09 19.98,28.53 17.41,28.53 17.41,23.4 
			22.55,23.4 22.55,20.83 17.41,20.83 17.41,15.7 25.11,15.7 25.11,18.27 27.68,18.27 27.68,15.7 30.24,15.7 		"/>
		<path id="XMLID_51_" class="st0" d="M34.41,19.87c-5.48,0-9.94,4.46-9.94,9.94s4.46,9.94,9.94,9.94c5.48,0,9.94-4.46,9.94-9.94
			S39.9,19.87,34.41,19.87z M34.41,37.19c-4.07,0-7.38-3.31-7.38-7.38s3.31-7.38,7.38-7.38c4.07,0,7.38,3.31,7.38,7.38
			S38.48,37.19,34.41,37.19z"/>
	</g>
</g>
</svg>
