<?xml version="1.0" encoding="utf-8"?>
<!-- Generator: Adobe Illustrator 24.0.1, SVG Export Plug-In . SVG Version: 6.00 Build 0)  -->
<svg version="1.1" id="Layer_1" xmlns="http://www.w3.org/2000/svg" xmlns:xlink="http://www.w3.org/1999/xlink" x="0px" y="0px"
	 viewBox="0 0 45 40" style="enable-background:new 0 0 45 40;" xml:space="preserve">
<style type="text/css">
	.st0{fill:#FFFFFF;}
</style>
<g id="XMLID_24_">
	<g>
		<g id="XMLID_161_">
			<path id="XMLID_162_" class="st0" d="M21.26,31.98c-2.92,0-5.29-2.38-5.29-5.29c0-2.92,2.37-5.29,5.29-5.29s5.29,2.37,5.29,5.29
				C26.56,29.6,24.18,31.98,21.26,31.98z M21.26,23.96c-1.5,0-2.73,1.22-2.73,2.73c0,1.5,1.22,2.73,2.73,2.73s2.73-1.22,2.73-2.73
				C23.99,25.18,22.77,23.96,21.26,23.96z"/>
		</g>
		<g id="XMLID_157_">
			<path id="XMLID_158_" class="st0" d="M39.23,21.71c-2.92,0-5.29-2.38-5.29-5.29c0-2.92,2.38-5.29,5.29-5.29
				c2.92,0,5.29,2.37,5.29,5.29C44.52,19.34,42.14,21.71,39.23,21.71z M39.23,13.69c-1.5,0-2.73,1.22-2.73,2.73
				c0,1.5,1.22,2.73,2.73,2.73s2.73-1.22,2.73-2.73C41.95,14.92,40.73,13.69,39.23,13.69z"/>
		</g>
		<g id="XMLID_153_">
			<path id="XMLID_154_" class="st0" d="M5.87,11.45c-2.92,0-5.29-2.38-5.29-5.29c0-2.92,2.37-5.29,5.29-5.29s5.29,2.37,5.29,5.29
				C11.16,9.07,8.79,11.45,5.87,11.45z M5.87,3.43c-1.5,0-2.73,1.22-2.73,2.73c0,1.5,1.22,2.73,2.73,2.73c1.5,0,2.73-1.22,2.73-2.73
				C8.59,4.65,7.37,3.43,5.87,3.43z"/>
		</g>
		<g id="XMLID_151_">
			
				<rect id="XMLID_152_" x="12.17" y="7.8" transform="matrix(0.8004 -0.5995 0.5995 0.8004 -7.1738 11.3513)" class="st0" width="2.57" height="17.3"/>
		</g>
		<g id="XMLID_149_">
			
				<rect id="XMLID_150_" x="25.04" y="20.59" transform="matrix(0.8584 -0.513 0.513 0.8584 -6.9078 18.7211)" class="st0" width="10.84" height="2.57"/>
		</g>
		<g id="XMLID_147_">
			<rect id="XMLID_148_" x="2.18" y="36.63" class="st0" width="38.49" height="2.57"/>
		</g>
	</g>
</g>
</svg>
