<?xml version="1.0" encoding="utf-8"?>
<!-- Generator: Adobe Illustrator 24.0.1, SVG Export Plug-In . SVG Version: 6.00 Build 0)  -->
<svg version="1.1" id="Layer_1" xmlns="http://www.w3.org/2000/svg" xmlns:xlink="http://www.w3.org/1999/xlink" x="0px" y="0px"
	 viewBox="0 0 45 40" style="enable-background:new 0 0 45 40;" xml:space="preserve">
<style type="text/css">
	.st0{fill:#FFFFFF;}
</style>
<g id="XMLID_1_">
	<g>
		<g id="XMLID_80_">
			<path id="XMLID_81_" class="st0" d="M6.83,39.81c-2.24,0-4.06-1.82-4.06-4.06c0-2.24,1.82-4.06,4.06-4.06
				c2.24,0,4.06,1.82,4.06,4.06C10.89,37.99,9.07,39.81,6.83,39.81z M6.83,34.25c-0.83,0-1.5,0.67-1.5,1.5c0,0.82,0.67,1.5,1.5,1.5
				c0.82,0,1.5-0.67,1.5-1.5C8.33,34.92,7.66,34.25,6.83,34.25z"/>
		</g>
		<polygon id="XMLID_79_" class="st0" points="10.9,10.12 8.33,10.13 8.34,14.36 10.9,14.36 		"/>
		<polygon id="XMLID_78_" class="st0" points="24.9,18.29 23.02,16.54 20.14,19.64 22.01,21.39 		"/>
		<polygon id="XMLID_77_" class="st0" points="18.22,25.49 16.33,23.75 8.35,32.31 10.22,34.06 		"/>
		<polygon id="XMLID_76_" class="st0" points="32.41,33.77 32.4,31.2 28.17,31.21 28.17,33.76 		"/>
		<path id="XMLID_75_" class="st0" d="M6.83,2.87c18.11,0,32.84,14.72,32.87,32.82h2.63C42.29,16.15,26.38,0.25,6.83,0.25
			c-0.03,0-0.07,0-0.1,0v2.63C6.76,2.88,6.79,2.87,6.83,2.87z"/>
	</g>
</g>
</svg>
