<?xml version="1.0" encoding="utf-8"?>
<!-- Generator: Adobe Illustrator 24.0.1, SVG Export Plug-In . SVG Version: 6.00 Build 0)  -->
<svg version="1.1" id="Layer_1" xmlns="http://www.w3.org/2000/svg" xmlns:xlink="http://www.w3.org/1999/xlink" x="0px" y="0px"
	 viewBox="0 0 300 267" style="enable-background:new 0 0 300 267;" xml:space="preserve">
<style type="text/css">
	.st0{fill:#231F20;}
	.st1{fill:#3A9043;}
	.st2{fill:#1A629C;}
	.st3{fill:url(#SVGID_1_);}
</style>
<g>
	<g>
		<g>
			<path class="st0" d="M290.23,193.12v1.27h-2.06v5.91h-1.45v-5.91h-2.07v-1.27H290.23z"/>
			<path class="st0" d="M295.93,193.12H298v7.18h-1.34v-4.86c0-0.14,0-0.34,0.01-0.59c0-0.25,0-0.45,0-0.58l-1.31,6.03h-1.4
				l-1.3-6.03c0,0.14,0,0.33,0,0.58c0,0.25,0.01,0.45,0.01,0.59v4.86h-1.34v-7.18h2.1l1.25,5.65L295.93,193.12z"/>
		</g>
		<path class="st1" d="M41.22,175.11c-0.51-9.51-6.93-14.27-16.74-14.27c-9.47,0-15.05,4.32-15.05,11.8
			c0,8.19,6.68,9.69,16.23,11.89c13.27,3,22.99,5.64,22.99,18.15c0,13.56-11.5,18.41-22.65,18.41C11.05,221.09,2,212.98,2,199.6
			v-0.53h5.49c0,11.63,7.44,17.17,18.93,17.17c10.4,0,16.74-4.84,16.74-12.95c0-8.46-6.34-10.4-20.37-13.83
			c-9.21-2.2-18.85-4.4-18.85-16.47c0-10.57,8.03-17.18,20.96-17.18c12.68,0,21.3,6.34,21.89,19.29H41.22z"/>
		<path class="st1" d="M74.36,178.99H65.4v28.71c0,4.58-0.17,7.58,5.49,7.58c0.93,0,1.94-0.09,3.46-0.26v4.76
			c-1.94,0.26-2.79,0.35-4.65,0.35c-3.8,0-8.03-0.79-9.04-5.2c-0.42-1.85-0.51-3.17-0.51-9.95v-25.98h-7.69v-4.49h7.69v-13.83h5.24
			v13.83h8.96V178.99z"/>
		<path class="st1" d="M99.63,238.4c-12.09,0-19.95-9.25-19.95-23.61c0-14.36,8.2-24.4,19.86-24.4c12.85,0,19.1,11.1,19.1,23.6v1.59
			H85.09c0,9.51,4.23,18.32,14.71,18.32c6.93,0,11.58-4.05,13.27-11.89h5.16C116.37,232.05,109.86,238.4,99.63,238.4z M99.38,194.97
			c-9.47,0-13.27,7.66-14.29,16.12h28.23C112.73,201.05,107.49,194.97,99.38,194.97z"/>
		<path class="st1" d="M148.15,179.43c-0.59,0-1.1-0.09-1.44-0.09c-6.51,0-12.17,4.23-13.86,10.75c-0.68,2.73-1.02,5.37-1.02,11.19
			v18.5h-5.24v-45.27h4.99v10.83c3.63-8.28,7.78-11.36,16.57-11.54V179.43z"/>
		<path class="st1" d="M157.95,165.86h-5.33v-10.04h5.33V165.86z M157.95,219.77h-5.33v-45.27h5.33V219.77z"/>
		<path class="st1" d="M173.59,219.77h-5.24v-63.95h5.24V219.77z"/>
		<path class="st2" d="M238.43,188.63c0,19.42-11.5,32.46-28.49,32.46c-16.91,0-28.23-13.12-28.23-32.63
			c0-19.42,11.41-32.63,28.32-32.63C226.85,155.82,238.43,169.12,238.43,188.63z M187.45,188.28c0,16.71,8.96,27.64,22.57,27.64
			c13.61,0,22.65-10.94,22.65-27.38s-9.13-27.56-22.74-27.56C196.5,160.98,187.45,172.01,187.45,188.28z"/>
		<path class="st2" d="M264.88,214.26l17.16,24.13h-6.76l-11.58-16.56c-0.68-1.06-1.19-1.76-2.2-3.44c-0.59,0.97-1.53,2.38-2.2,3.35
			l-11.5,16.65h-6.34l16.82-23.78l-15.55-21.49h6.76l9.38,13.21c0.93,1.32,1.78,2.91,2.71,4.23c1.78-2.73,1.18-2.03,2.79-4.23
			l9.64-13.21h6.25L264.88,214.26z"/>
	</g>
	<g>
		<path class="st2" d="M4.04,251.4l3.53,9.81l3.54-9.82h2.04v11.68h-1.41v-9.7H11.7l-3.5,9.7H6.94l-3.5-9.7H3.41v9.7H2V251.4H4.04z"
			/>
		<path class="st2" d="M20.86,263.08v-1.34h-0.03c-0.28,0.52-0.64,0.91-1.08,1.15c-0.44,0.25-0.96,0.37-1.55,0.37
			c-0.53,0-0.98-0.07-1.33-0.22c-0.36-0.15-0.64-0.36-0.86-0.63c-0.22-0.27-0.37-0.6-0.46-0.97c-0.09-0.38-0.13-0.79-0.13-1.25
			v-5.55h1.33v5.72c0,0.52,0.15,0.94,0.44,1.24c0.29,0.3,0.7,0.46,1.21,0.46c0.41,0,0.76-0.07,1.06-0.2
			c0.3-0.13,0.55-0.32,0.74-0.56c0.2-0.24,0.35-0.52,0.45-0.84c0.1-0.32,0.15-0.67,0.15-1.05v-4.77h1.33v8.44H20.86z"/>
		<path class="st2" d="M25.53,251.4v11.68h-1.33V251.4H25.53z"/>
		<path class="st2" d="M31.06,254.63v1.23h-1.61v5.24c0,0.16,0.01,0.29,0.04,0.39c0.03,0.1,0.08,0.17,0.15,0.23
			c0.07,0.05,0.17,0.09,0.31,0.11c0.13,0.02,0.3,0.02,0.51,0.02h0.61v1.22h-1.02c-0.34,0-0.64-0.02-0.89-0.07
			c-0.25-0.05-0.44-0.14-0.6-0.27c-0.15-0.13-0.26-0.32-0.34-0.56c-0.07-0.24-0.11-0.55-0.11-0.95v-5.37h-1.38v-1.23h1.38v-2.53
			h1.33v2.53H31.06z"/>
		<path class="st2" d="M32.61,253.12v-1.71h1.33v1.71H32.61z M33.94,254.63v8.44h-1.33v-8.44H33.94z"/>
		<path class="st2" d="M40.32,257.88v1.31h-4.53v-1.31H40.32z"/>
		<path class="st2" d="M43.49,254.63v1.14h0.03c0.22-0.47,0.56-0.81,1.03-1.02c0.47-0.21,0.99-0.32,1.55-0.32
			c0.63,0,1.17,0.12,1.64,0.36c0.46,0.24,0.85,0.56,1.16,0.97c0.31,0.41,0.54,0.88,0.7,1.41c0.16,0.53,0.24,1.1,0.24,1.7
			c0,0.6-0.08,1.17-0.23,1.7c-0.15,0.53-0.38,1-0.69,1.4c-0.31,0.4-0.69,0.71-1.16,0.94s-1.01,0.34-1.62,0.34
			c-0.2,0-0.42-0.02-0.67-0.07c-0.25-0.04-0.49-0.11-0.73-0.21c-0.24-0.1-0.47-0.23-0.68-0.4c-0.21-0.17-0.39-0.38-0.54-0.63h-0.03
			v4.34h-1.33v-11.66H43.49z M48.27,257.63c-0.1-0.38-0.25-0.71-0.45-1c-0.2-0.29-0.47-0.53-0.78-0.7
			c-0.32-0.17-0.69-0.26-1.12-0.26c-0.45,0-0.83,0.09-1.14,0.28c-0.31,0.19-0.57,0.43-0.77,0.73c-0.2,0.3-0.34,0.64-0.43,1.02
			c-0.09,0.38-0.13,0.77-0.13,1.16c0,0.41,0.05,0.81,0.14,1.2c0.09,0.39,0.24,0.73,0.45,1.02c0.2,0.29,0.47,0.53,0.79,0.71
			c0.32,0.18,0.72,0.27,1.18,0.27c0.46,0,0.84-0.09,1.15-0.28c0.31-0.18,0.56-0.43,0.74-0.73c0.19-0.3,0.32-0.65,0.41-1.05
			c0.08-0.39,0.13-0.79,0.13-1.21C48.42,258.39,48.37,258.01,48.27,257.63z"/>
		<path class="st2" d="M56.85,263.08v-1.34h-0.03c-0.28,0.52-0.64,0.91-1.08,1.15c-0.44,0.25-0.96,0.37-1.55,0.37
			c-0.53,0-0.98-0.07-1.33-0.22c-0.36-0.15-0.64-0.36-0.86-0.63c-0.22-0.27-0.37-0.6-0.46-0.97c-0.09-0.38-0.13-0.79-0.13-1.25
			v-5.55h1.33v5.72c0,0.52,0.15,0.94,0.44,1.24c0.29,0.3,0.69,0.46,1.21,0.46c0.41,0,0.76-0.07,1.06-0.2
			c0.3-0.13,0.55-0.32,0.74-0.56c0.2-0.24,0.35-0.52,0.45-0.84c0.1-0.32,0.15-0.67,0.15-1.05v-4.77h1.33v8.44H56.85z"/>
		<path class="st2" d="M61.32,254.63v1.78h0.03c0.32-0.69,0.72-1.19,1.19-1.52c0.47-0.33,1.07-0.48,1.79-0.46v1.47
			c-0.53,0-0.99,0.08-1.36,0.23c-0.38,0.15-0.68,0.38-0.91,0.67c-0.23,0.29-0.4,0.65-0.5,1.07c-0.1,0.42-0.16,0.9-0.16,1.45v3.76
			h-1.33v-8.44H61.32z"/>
		<path class="st2" d="M66.71,254.63v1.14h0.03c0.22-0.47,0.56-0.81,1.03-1.02c0.47-0.21,0.99-0.32,1.55-0.32
			c0.63,0,1.17,0.12,1.64,0.36c0.46,0.24,0.85,0.56,1.16,0.97c0.31,0.41,0.54,0.88,0.7,1.41c0.16,0.53,0.24,1.1,0.24,1.7
			c0,0.6-0.08,1.17-0.23,1.7c-0.15,0.53-0.38,1-0.69,1.4c-0.31,0.4-0.7,0.71-1.16,0.94c-0.46,0.23-1.01,0.34-1.62,0.34
			c-0.2,0-0.42-0.02-0.67-0.07c-0.25-0.04-0.49-0.11-0.73-0.21c-0.24-0.1-0.47-0.23-0.68-0.4c-0.21-0.17-0.39-0.38-0.54-0.63h-0.03
			v4.34h-1.33v-11.66H66.71z M71.5,257.63c-0.1-0.38-0.25-0.71-0.45-1c-0.2-0.29-0.47-0.53-0.78-0.7c-0.32-0.17-0.69-0.26-1.12-0.26
			c-0.45,0-0.83,0.09-1.14,0.28c-0.31,0.19-0.57,0.43-0.77,0.73c-0.2,0.3-0.34,0.64-0.43,1.02c-0.09,0.38-0.13,0.77-0.13,1.16
			c0,0.41,0.05,0.81,0.14,1.2c0.09,0.39,0.24,0.73,0.45,1.02c0.2,0.29,0.47,0.53,0.79,0.71c0.32,0.18,0.72,0.27,1.18,0.27
			c0.46,0,0.84-0.09,1.15-0.28c0.31-0.18,0.56-0.43,0.74-0.73c0.19-0.3,0.32-0.65,0.41-1.05c0.08-0.39,0.13-0.79,0.13-1.21
			C71.65,258.39,71.6,258.01,71.5,257.63z"/>
		<path class="st2" d="M74.44,257.12c0.17-0.54,0.42-1.01,0.75-1.4c0.33-0.4,0.75-0.71,1.24-0.94c0.49-0.23,1.05-0.34,1.69-0.34
			c0.65,0,1.21,0.11,1.7,0.34c0.49,0.23,0.9,0.54,1.23,0.94c0.33,0.4,0.59,0.87,0.75,1.4c0.17,0.54,0.25,1.12,0.25,1.74
			c0,0.62-0.08,1.2-0.25,1.73c-0.17,0.53-0.42,1-0.75,1.4c-0.33,0.4-0.74,0.71-1.23,0.93c-0.49,0.22-1.05,0.33-1.7,0.33
			c-0.64,0-1.2-0.11-1.69-0.33c-0.49-0.22-0.9-0.53-1.24-0.93c-0.34-0.4-0.59-0.86-0.75-1.4c-0.17-0.53-0.25-1.11-0.25-1.73
			C74.19,258.24,74.27,257.66,74.44,257.12z M75.8,260.23c0.13,0.4,0.31,0.73,0.54,1c0.23,0.27,0.5,0.47,0.81,0.61
			c0.31,0.14,0.63,0.21,0.98,0.21c0.34,0,0.67-0.07,0.98-0.21c0.31-0.14,0.58-0.35,0.81-0.61c0.23-0.27,0.41-0.6,0.54-1
			c0.13-0.4,0.2-0.85,0.2-1.36c0-0.51-0.07-0.97-0.2-1.36c-0.13-0.4-0.31-0.73-0.54-1c-0.23-0.27-0.5-0.48-0.81-0.62
			c-0.31-0.14-0.63-0.21-0.98-0.21c-0.34,0-0.67,0.07-0.98,0.21c-0.31,0.14-0.58,0.35-0.81,0.62c-0.23,0.27-0.41,0.61-0.54,1
			c-0.13,0.4-0.2,0.85-0.2,1.36C75.6,259.38,75.66,259.83,75.8,260.23z"/>
		<path class="st2" d="M84.64,261.19c0.13,0.21,0.29,0.38,0.49,0.51c0.2,0.13,0.43,0.22,0.69,0.27c0.26,0.05,0.52,0.08,0.79,0.08
			c0.21,0,0.43-0.02,0.66-0.05c0.23-0.03,0.44-0.09,0.63-0.18s0.35-0.21,0.48-0.38c0.13-0.17,0.19-0.38,0.19-0.65
			c0-0.36-0.13-0.63-0.39-0.82c-0.26-0.19-0.59-0.33-0.98-0.45c-0.39-0.11-0.82-0.22-1.28-0.31c-0.46-0.09-0.89-0.22-1.28-0.39
			c-0.39-0.17-0.72-0.41-0.98-0.71c-0.26-0.31-0.39-0.73-0.39-1.27c0-0.42,0.09-0.79,0.27-1.09c0.18-0.3,0.42-0.55,0.71-0.74
			c0.29-0.19,0.61-0.33,0.97-0.42c0.36-0.09,0.72-0.14,1.07-0.14c0.46,0,0.88,0.04,1.27,0.12c0.39,0.08,0.73,0.22,1.03,0.43
			c0.3,0.2,0.54,0.47,0.71,0.82s0.28,0.77,0.31,1.28h-1.33c-0.02-0.27-0.09-0.5-0.2-0.68c-0.12-0.18-0.26-0.32-0.44-0.43
			c-0.18-0.11-0.37-0.19-0.59-0.24c-0.21-0.05-0.43-0.07-0.65-0.07c-0.2,0-0.4,0.02-0.6,0.05c-0.2,0.03-0.39,0.09-0.56,0.17
			c-0.17,0.08-0.3,0.19-0.41,0.33c-0.1,0.14-0.16,0.31-0.16,0.53c0,0.24,0.08,0.44,0.24,0.6c0.16,0.16,0.37,0.29,0.62,0.39
			c0.25,0.1,0.53,0.19,0.85,0.26c0.31,0.07,0.63,0.14,0.94,0.22c0.33,0.08,0.66,0.17,0.98,0.28c0.32,0.11,0.6,0.25,0.85,0.43
			c0.25,0.18,0.44,0.41,0.6,0.68c0.15,0.27,0.23,0.61,0.23,1.01c0,0.51-0.1,0.94-0.31,1.27c-0.2,0.34-0.47,0.61-0.8,0.82
			c-0.33,0.21-0.7,0.35-1.11,0.43c-0.41,0.08-0.82,0.12-1.23,0.12c-0.45,0-0.88-0.05-1.29-0.15c-0.41-0.1-0.77-0.26-1.08-0.48
			c-0.31-0.22-0.56-0.52-0.75-0.88c-0.19-0.37-0.29-0.81-0.31-1.33h1.33C84.45,260.72,84.52,260.98,84.64,261.19z"/>
		<path class="st2" d="M97.2,262.54c-0.61,0.48-1.37,0.72-2.29,0.72c-0.65,0-1.21-0.11-1.68-0.33c-0.48-0.22-0.88-0.52-1.2-0.91
			c-0.32-0.39-0.57-0.86-0.73-1.4s-0.25-1.14-0.27-1.78c0-0.64,0.09-1.23,0.28-1.76c0.19-0.53,0.45-1,0.79-1.39
			c0.34-0.39,0.74-0.7,1.21-0.91c0.46-0.22,0.97-0.33,1.53-0.33c0.72,0,1.32,0.16,1.79,0.47c0.48,0.31,0.86,0.7,1.14,1.18
			c0.29,0.48,0.49,1,0.6,1.57c0.11,0.57,0.15,1.11,0.13,1.62h-6.07c-0.01,0.37,0.03,0.72,0.13,1.05c0.09,0.33,0.25,0.63,0.45,0.88
			c0.21,0.26,0.48,0.46,0.8,0.61c0.32,0.15,0.71,0.23,1.14,0.23c0.56,0,1.03-0.14,1.39-0.41c0.36-0.27,0.6-0.69,0.71-1.24h1.32
			C98.19,261.35,97.8,262.06,97.2,262.54z M96.88,257.12c-0.12-0.29-0.28-0.55-0.49-0.76c-0.2-0.21-0.44-0.38-0.72-0.51
			c-0.28-0.13-0.58-0.19-0.92-0.19c-0.34,0-0.66,0.06-0.93,0.19c-0.28,0.12-0.51,0.3-0.71,0.51c-0.2,0.22-0.36,0.47-0.47,0.76
			c-0.12,0.29-0.18,0.6-0.2,0.92h4.65C97.07,257.72,97,257.41,96.88,257.12z"/>
		<path class="st2" d="M108.29,251.4c1.72,0,3.05,0.47,3.98,1.39c0.93,0.92,1.39,2.31,1.39,4.18c0,0.98-0.1,1.85-0.31,2.6
			c-0.21,0.76-0.53,1.39-0.97,1.91s-1,0.91-1.68,1.18c-0.68,0.27-1.48,0.41-2.41,0.41h-3.84V251.4H108.29z M108.42,261.77
			c0.17,0,0.38-0.01,0.63-0.04c0.25-0.03,0.52-0.09,0.8-0.2c0.28-0.1,0.56-0.25,0.84-0.45c0.28-0.2,0.53-0.46,0.74-0.8
			c0.22-0.34,0.4-0.76,0.54-1.27c0.14-0.51,0.21-1.12,0.21-1.84c0-0.7-0.07-1.32-0.2-1.87c-0.13-0.55-0.34-1.02-0.64-1.4
			c-0.3-0.39-0.68-0.68-1.15-0.88c-0.47-0.2-1.05-0.3-1.74-0.3h-2.51v9.05H108.42z"/>
		<path class="st2" d="M115.35,253.12v-1.71h1.33v1.71H115.35z M116.68,254.63v8.44h-1.33v-8.44H116.68z"/>
		<path class="st2" d="M119.77,261.19c0.13,0.21,0.29,0.38,0.49,0.51c0.2,0.13,0.43,0.22,0.69,0.27c0.26,0.05,0.52,0.08,0.79,0.08
			c0.21,0,0.43-0.02,0.66-0.05c0.23-0.03,0.44-0.09,0.63-0.18s0.35-0.21,0.48-0.38c0.13-0.17,0.19-0.38,0.19-0.65
			c0-0.36-0.13-0.63-0.39-0.82c-0.26-0.19-0.59-0.33-0.98-0.45c-0.39-0.11-0.82-0.22-1.28-0.31c-0.46-0.09-0.89-0.22-1.28-0.39
			c-0.39-0.17-0.72-0.41-0.98-0.71c-0.26-0.31-0.39-0.73-0.39-1.27c0-0.42,0.09-0.79,0.27-1.09c0.18-0.3,0.42-0.55,0.71-0.74
			c0.29-0.19,0.61-0.33,0.97-0.42s0.72-0.14,1.07-0.14c0.46,0,0.88,0.04,1.27,0.12c0.39,0.08,0.73,0.22,1.03,0.43
			s0.54,0.47,0.71,0.82s0.28,0.77,0.31,1.28h-1.33c-0.02-0.27-0.09-0.5-0.2-0.68c-0.12-0.18-0.26-0.32-0.44-0.43
			c-0.18-0.11-0.37-0.19-0.59-0.24c-0.21-0.05-0.43-0.07-0.65-0.07c-0.2,0-0.4,0.02-0.6,0.05c-0.2,0.03-0.39,0.09-0.56,0.17
			c-0.17,0.08-0.3,0.19-0.41,0.33c-0.1,0.14-0.16,0.31-0.16,0.53c0,0.24,0.08,0.44,0.24,0.6c0.16,0.16,0.37,0.29,0.62,0.39
			c0.25,0.1,0.53,0.19,0.85,0.26c0.31,0.07,0.63,0.14,0.94,0.22c0.33,0.08,0.66,0.17,0.98,0.28c0.32,0.11,0.6,0.25,0.85,0.43
			c0.25,0.18,0.44,0.41,0.6,0.68c0.15,0.27,0.23,0.61,0.23,1.01c0,0.51-0.1,0.94-0.31,1.27c-0.2,0.34-0.47,0.61-0.8,0.82
			c-0.33,0.21-0.7,0.35-1.11,0.43c-0.41,0.08-0.82,0.12-1.23,0.12c-0.45,0-0.88-0.05-1.29-0.15c-0.41-0.1-0.77-0.26-1.08-0.48
			c-0.31-0.22-0.56-0.52-0.75-0.88c-0.19-0.37-0.29-0.81-0.31-1.33h1.33C119.57,260.72,119.64,260.98,119.77,261.19z"/>
		<path class="st2" d="M126.66,253.12v-1.71h1.33v1.71H126.66z M127.99,254.63v8.44h-1.33v-8.44H127.99z"/>
		<path class="st2" d="M131.32,254.63v1.34h0.03c0.55-1.02,1.43-1.54,2.63-1.54c0.53,0,0.98,0.08,1.33,0.23
			c0.36,0.15,0.64,0.37,0.86,0.64c0.22,0.27,0.37,0.6,0.46,0.97c0.09,0.38,0.13,0.79,0.13,1.25v5.55h-1.33v-5.72
			c0-0.52-0.15-0.94-0.44-1.24c-0.29-0.31-0.7-0.46-1.21-0.46c-0.41,0-0.76,0.06-1.06,0.2c-0.3,0.13-0.55,0.32-0.74,0.56
			c-0.2,0.24-0.35,0.52-0.45,0.84s-0.15,0.67-0.15,1.05v4.77h-1.33v-8.44H131.32z"/>
		<path class="st2" d="M137.96,255.86v-1.23h1.36v-1.26c0-0.69,0.19-1.21,0.57-1.56c0.38-0.35,0.94-0.53,1.67-0.53
			c0.13,0,0.27,0.01,0.43,0.03c0.16,0.02,0.31,0.05,0.43,0.1v1.21c-0.12-0.04-0.24-0.07-0.38-0.09c-0.14-0.02-0.26-0.02-0.38-0.02
			c-0.32,0-0.57,0.07-0.75,0.2c-0.18,0.13-0.27,0.38-0.27,0.75v1.18h1.57v1.23h-1.57v7.22h-1.33v-7.22H137.96z"/>
		<path class="st2" d="M149.15,262.54c-0.61,0.48-1.37,0.72-2.29,0.72c-0.65,0-1.21-0.11-1.68-0.33c-0.48-0.22-0.88-0.52-1.2-0.91
			c-0.32-0.39-0.57-0.86-0.73-1.4s-0.25-1.14-0.27-1.78c0-0.64,0.09-1.23,0.28-1.76c0.19-0.53,0.45-1,0.79-1.39
			c0.34-0.39,0.74-0.7,1.21-0.91c0.46-0.22,0.97-0.33,1.53-0.33c0.72,0,1.32,0.16,1.79,0.47c0.48,0.31,0.86,0.7,1.14,1.18
			c0.29,0.48,0.49,1,0.6,1.57c0.11,0.57,0.15,1.11,0.13,1.62h-6.07c-0.01,0.37,0.03,0.72,0.13,1.05c0.09,0.33,0.25,0.63,0.45,0.88
			c0.21,0.26,0.48,0.46,0.8,0.61c0.32,0.15,0.71,0.23,1.14,0.23c0.56,0,1.03-0.14,1.39-0.41c0.36-0.27,0.6-0.69,0.71-1.24h1.32
			C150.15,261.35,149.76,262.06,149.15,262.54z M148.83,257.12c-0.12-0.29-0.28-0.55-0.49-0.76c-0.2-0.21-0.44-0.38-0.72-0.51
			c-0.28-0.13-0.58-0.19-0.92-0.19c-0.34,0-0.66,0.06-0.93,0.19c-0.28,0.12-0.51,0.3-0.71,0.51c-0.2,0.22-0.36,0.47-0.47,0.76
			c-0.12,0.29-0.18,0.6-0.2,0.92h4.65C149.02,257.72,148.95,257.41,148.83,257.12z"/>
		<path class="st2" d="M156.67,256.1c-0.33-0.29-0.78-0.44-1.35-0.44c-0.48,0-0.88,0.09-1.21,0.28c-0.32,0.19-0.58,0.43-0.78,0.73
			c-0.19,0.31-0.33,0.66-0.42,1.05c-0.08,0.4-0.13,0.81-0.13,1.23c0,0.39,0.04,0.77,0.13,1.14c0.09,0.37,0.23,0.7,0.42,0.99
			c0.19,0.29,0.43,0.52,0.74,0.69s0.66,0.26,1.08,0.26c0.66,0,1.17-0.18,1.54-0.54c0.37-0.36,0.6-0.86,0.68-1.52h1.36
			c-0.15,1.05-0.52,1.85-1.12,2.42c-0.6,0.57-1.42,0.85-2.45,0.85c-0.62,0-1.16-0.1-1.64-0.31c-0.48-0.21-0.87-0.5-1.19-0.88
			s-0.56-0.84-0.72-1.36c-0.16-0.53-0.24-1.11-0.24-1.74s0.08-1.22,0.24-1.77c0.16-0.55,0.39-1.03,0.71-1.44s0.72-0.73,1.2-0.96
			c0.48-0.23,1.04-0.35,1.68-0.35c0.46,0,0.89,0.06,1.29,0.17c0.4,0.11,0.76,0.29,1.07,0.53c0.31,0.24,0.56,0.54,0.76,0.91
			c0.2,0.36,0.32,0.8,0.38,1.3h-1.38C157.23,256.81,157.01,256.4,156.67,256.1z"/>
		<path class="st2" d="M163.71,254.63v1.23h-1.61v5.24c0,0.16,0.01,0.29,0.04,0.39c0.03,0.1,0.08,0.17,0.15,0.23
			c0.07,0.05,0.17,0.09,0.31,0.11c0.13,0.02,0.3,0.02,0.51,0.02h0.61v1.22h-1.02c-0.34,0-0.64-0.02-0.89-0.07
			c-0.25-0.05-0.44-0.14-0.6-0.27c-0.15-0.13-0.26-0.32-0.34-0.56c-0.07-0.24-0.11-0.55-0.11-0.95v-5.37h-1.38v-1.23h1.38v-2.53
			h1.33v2.53H163.71z"/>
		<path class="st2" d="M172.36,263.04c-0.23,0.14-0.55,0.21-0.96,0.21c-0.34,0-0.62-0.1-0.82-0.3c-0.2-0.2-0.31-0.53-0.31-0.99
			c-0.37,0.46-0.79,0.79-1.28,0.99c-0.49,0.2-1.01,0.3-1.58,0.3c-0.37,0-0.71-0.04-1.04-0.13c-0.33-0.09-0.61-0.22-0.85-0.41
			c-0.24-0.18-0.43-0.43-0.57-0.73c-0.14-0.3-0.21-0.66-0.21-1.09c0-0.48,0.08-0.87,0.24-1.18c0.16-0.3,0.36-0.55,0.62-0.74
			c0.26-0.19,0.55-0.33,0.88-0.43c0.33-0.1,0.67-0.18,1.01-0.24c0.37-0.08,0.71-0.13,1.04-0.17c0.33-0.04,0.62-0.09,0.87-0.16
			c0.25-0.07,0.45-0.17,0.6-0.31c0.15-0.14,0.22-0.33,0.22-0.6c0-0.3-0.05-0.55-0.16-0.74c-0.11-0.18-0.25-0.33-0.42-0.42
			c-0.17-0.1-0.37-0.16-0.58-0.2c-0.21-0.03-0.43-0.05-0.63-0.05c-0.56,0-1.03,0.11-1.41,0.33c-0.38,0.22-0.58,0.65-0.61,1.27h-1.33
			c0.02-0.52,0.13-0.96,0.31-1.32c0.19-0.36,0.44-0.65,0.75-0.87c0.31-0.22,0.67-0.38,1.07-0.48c0.4-0.1,0.83-0.15,1.29-0.15
			c0.37,0,0.73,0.03,1.09,0.08c0.36,0.05,0.69,0.17,0.98,0.33c0.29,0.17,0.53,0.4,0.71,0.71c0.18,0.3,0.27,0.7,0.27,1.19v4.33
			c0,0.33,0.02,0.56,0.05,0.72c0.04,0.15,0.16,0.23,0.37,0.23c0.12,0,0.25-0.02,0.41-0.06V263.04z M170.2,258.72
			c-0.17,0.13-0.39,0.22-0.66,0.28c-0.27,0.06-0.56,0.11-0.85,0.15c-0.3,0.04-0.6,0.08-0.9,0.13s-0.57,0.13-0.82,0.24
			c-0.24,0.11-0.44,0.26-0.59,0.46c-0.15,0.2-0.23,0.47-0.23,0.82c0,0.23,0.04,0.42,0.13,0.58c0.09,0.16,0.2,0.28,0.34,0.38
			c0.14,0.1,0.31,0.17,0.49,0.21c0.19,0.04,0.39,0.06,0.6,0.06c0.44,0,0.81-0.06,1.13-0.19c0.31-0.12,0.57-0.28,0.77-0.47
			c0.2-0.19,0.34-0.4,0.44-0.62c0.09-0.22,0.14-0.43,0.14-0.63V258.72z"/>
		<path class="st2" d="M174.85,254.63v1.34h0.03c0.55-1.02,1.43-1.54,2.63-1.54c0.53,0,0.98,0.08,1.33,0.23
			c0.36,0.15,0.64,0.37,0.86,0.64c0.22,0.27,0.37,0.6,0.46,0.97c0.09,0.38,0.13,0.79,0.13,1.25v5.55h-1.33v-5.72
			c0-0.52-0.15-0.94-0.44-1.24c-0.29-0.31-0.7-0.46-1.21-0.46c-0.41,0-0.76,0.06-1.06,0.2c-0.3,0.13-0.55,0.32-0.74,0.56
			c-0.2,0.24-0.35,0.52-0.45,0.84c-0.1,0.32-0.15,0.67-0.15,1.05v4.77h-1.33v-8.44H174.85z"/>
		<path class="st2" d="M185.78,254.63v1.23h-1.61v5.24c0,0.16,0.01,0.29,0.04,0.39c0.03,0.1,0.08,0.17,0.15,0.23
			c0.07,0.05,0.17,0.09,0.31,0.11c0.13,0.02,0.3,0.02,0.51,0.02h0.61v1.22h-1.02c-0.34,0-0.64-0.02-0.89-0.07
			c-0.25-0.05-0.44-0.14-0.6-0.27c-0.15-0.13-0.26-0.32-0.34-0.56c-0.07-0.24-0.11-0.55-0.11-0.95v-5.37h-1.38v-1.23h1.38v-2.53
			h1.33v2.53H185.78z"/>
		<path class="st2" d="M198.79,263.04c-0.23,0.14-0.55,0.21-0.96,0.21c-0.34,0-0.62-0.1-0.82-0.3c-0.2-0.2-0.31-0.53-0.31-0.99
			c-0.37,0.46-0.79,0.79-1.28,0.99s-1.01,0.3-1.58,0.3c-0.37,0-0.71-0.04-1.04-0.13c-0.33-0.09-0.61-0.22-0.85-0.41
			c-0.24-0.18-0.43-0.43-0.57-0.73c-0.14-0.3-0.21-0.66-0.21-1.09c0-0.48,0.08-0.87,0.24-1.18c0.16-0.3,0.36-0.55,0.62-0.74
			c0.26-0.19,0.55-0.33,0.88-0.43c0.33-0.1,0.67-0.18,1.01-0.24c0.37-0.08,0.71-0.13,1.04-0.17c0.33-0.04,0.62-0.09,0.87-0.16
			s0.45-0.17,0.6-0.31c0.15-0.14,0.22-0.33,0.22-0.6c0-0.3-0.05-0.55-0.16-0.74c-0.11-0.18-0.25-0.33-0.42-0.42
			c-0.17-0.1-0.37-0.16-0.58-0.2c-0.21-0.03-0.43-0.05-0.63-0.05c-0.56,0-1.03,0.11-1.41,0.33c-0.38,0.22-0.58,0.65-0.61,1.27h-1.33
			c0.02-0.52,0.13-0.96,0.31-1.32c0.19-0.36,0.44-0.65,0.75-0.87c0.31-0.22,0.67-0.38,1.07-0.48c0.4-0.1,0.83-0.15,1.29-0.15
			c0.37,0,0.73,0.03,1.09,0.08s0.69,0.17,0.98,0.33c0.29,0.17,0.53,0.4,0.71,0.71c0.18,0.3,0.27,0.7,0.27,1.19v4.33
			c0,0.33,0.02,0.56,0.05,0.72c0.04,0.15,0.16,0.23,0.37,0.23c0.12,0,0.25-0.02,0.41-0.06V263.04z M196.62,258.72
			c-0.17,0.13-0.39,0.22-0.66,0.28c-0.27,0.06-0.56,0.11-0.85,0.15c-0.3,0.04-0.6,0.08-0.9,0.13c-0.3,0.05-0.58,0.13-0.82,0.24
			c-0.24,0.11-0.44,0.26-0.59,0.46c-0.15,0.2-0.23,0.47-0.23,0.82c0,0.23,0.04,0.42,0.13,0.58c0.09,0.16,0.2,0.28,0.34,0.38
			c0.14,0.1,0.31,0.17,0.49,0.21c0.19,0.04,0.39,0.06,0.6,0.06c0.44,0,0.81-0.06,1.13-0.19c0.31-0.12,0.57-0.28,0.77-0.47
			c0.2-0.19,0.34-0.4,0.44-0.62c0.09-0.22,0.14-0.43,0.14-0.63V258.72z"/>
		<path class="st2" d="M201.28,254.63v1.34h0.03c0.55-1.02,1.43-1.54,2.63-1.54c0.53,0,0.98,0.08,1.33,0.23
			c0.36,0.15,0.64,0.37,0.86,0.64c0.22,0.27,0.37,0.6,0.46,0.97c0.09,0.38,0.13,0.79,0.13,1.25v5.55h-1.33v-5.72
			c0-0.52-0.15-0.94-0.44-1.24c-0.29-0.31-0.69-0.46-1.21-0.46c-0.41,0-0.76,0.06-1.06,0.2c-0.3,0.13-0.55,0.32-0.74,0.56
			c-0.2,0.24-0.35,0.52-0.45,0.84s-0.15,0.67-0.15,1.05v4.77h-1.33v-8.44H201.28z"/>
		<path class="st2" d="M214.65,263.08v-1.14h-0.03c-0.22,0.47-0.56,0.81-1.03,1.01c-0.47,0.21-0.99,0.31-1.55,0.31
			c-0.63,0-1.17-0.12-1.64-0.36c-0.47-0.24-0.85-0.56-1.16-0.96c-0.31-0.4-0.54-0.87-0.7-1.4c-0.16-0.53-0.24-1.1-0.24-1.7
			c0-0.6,0.08-1.17,0.23-1.7c0.15-0.53,0.38-1,0.69-1.4c0.31-0.4,0.69-0.71,1.16-0.95c0.46-0.23,1.01-0.35,1.62-0.35
			c0.21,0,0.43,0.02,0.67,0.07c0.24,0.04,0.48,0.12,0.72,0.22c0.24,0.1,0.47,0.24,0.68,0.41c0.21,0.17,0.39,0.38,0.54,0.63h0.03
			v-4.36h1.33v11.68H214.65z M209.86,260.08c0.1,0.38,0.25,0.71,0.45,1c0.2,0.29,0.46,0.53,0.78,0.7c0.32,0.17,0.69,0.26,1.12,0.26
			c0.45,0,0.83-0.09,1.14-0.28c0.31-0.18,0.57-0.43,0.77-0.73c0.2-0.3,0.34-0.64,0.43-1.02c0.09-0.38,0.13-0.77,0.13-1.16
			c0-0.41-0.05-0.81-0.14-1.2c-0.09-0.39-0.24-0.73-0.45-1.02c-0.2-0.29-0.47-0.53-0.79-0.71c-0.32-0.18-0.72-0.27-1.18-0.27
			c-0.45,0-0.83,0.09-1.14,0.28c-0.31,0.19-0.56,0.43-0.75,0.73c-0.19,0.31-0.32,0.65-0.41,1.05c-0.08,0.39-0.13,0.8-0.13,1.21
			C209.71,259.32,209.76,259.71,209.86,260.08z"/>
		<path class="st2" d="M228.21,253.01c-0.5-0.38-1.13-0.56-1.9-0.56c-0.31,0-0.62,0.03-0.92,0.1c-0.3,0.07-0.57,0.17-0.81,0.33
			c-0.24,0.15-0.42,0.36-0.56,0.61c-0.14,0.26-0.21,0.57-0.21,0.96c0,0.36,0.1,0.65,0.31,0.87c0.2,0.22,0.48,0.41,0.82,0.55
			c0.34,0.14,0.72,0.26,1.15,0.35c0.43,0.09,0.86,0.19,1.31,0.3c0.44,0.11,0.88,0.24,1.31,0.38s0.81,0.35,1.15,0.6
			c0.34,0.25,0.61,0.57,0.82,0.95c0.2,0.38,0.31,0.86,0.31,1.44c0,0.62-0.13,1.15-0.4,1.59c-0.27,0.44-0.61,0.8-1.03,1.08
			c-0.42,0.28-0.89,0.48-1.4,0.6c-0.52,0.12-1.03,0.19-1.54,0.19c-0.63,0-1.22-0.08-1.78-0.25c-0.56-0.16-1.05-0.41-1.47-0.74
			c-0.42-0.33-0.76-0.76-1-1.27s-0.37-1.13-0.37-1.84h1.41c0,0.49,0.09,0.91,0.27,1.27c0.18,0.35,0.42,0.64,0.72,0.87
			c0.3,0.23,0.65,0.4,1.04,0.51c0.4,0.11,0.8,0.16,1.22,0.16c0.33,0,0.67-0.03,1.01-0.1c0.34-0.07,0.65-0.18,0.92-0.33
			c0.27-0.16,0.49-0.37,0.66-0.64c0.17-0.27,0.25-0.62,0.25-1.04c0-0.4-0.1-0.73-0.31-0.98c-0.2-0.25-0.48-0.45-0.82-0.61
			c-0.34-0.16-0.72-0.29-1.15-0.38c-0.43-0.1-0.86-0.2-1.31-0.3c-0.44-0.1-0.88-0.22-1.31-0.36c-0.43-0.14-0.81-0.32-1.15-0.54
			c-0.34-0.22-0.61-0.51-0.82-0.87c-0.2-0.35-0.31-0.8-0.31-1.33c0-0.59,0.12-1.1,0.34-1.53s0.54-0.78,0.92-1.06
			c0.38-0.28,0.82-0.48,1.3-0.62c0.49-0.14,0.98-0.2,1.5-0.2c0.57,0,1.11,0.07,1.6,0.21c0.49,0.14,0.92,0.37,1.29,0.67
			c0.37,0.31,0.66,0.69,0.88,1.15c0.21,0.46,0.33,1.01,0.35,1.66h-1.41C229,253.99,228.71,253.38,228.21,253.01z"/>
		<path class="st2" d="M239.72,263.04c-0.23,0.14-0.55,0.21-0.96,0.21c-0.34,0-0.62-0.1-0.82-0.3c-0.2-0.2-0.31-0.53-0.31-0.99
			c-0.37,0.46-0.79,0.79-1.28,0.99c-0.49,0.2-1.01,0.3-1.58,0.3c-0.37,0-0.71-0.04-1.04-0.13c-0.33-0.09-0.61-0.22-0.85-0.41
			c-0.24-0.18-0.43-0.43-0.57-0.73c-0.14-0.3-0.21-0.66-0.21-1.09c0-0.48,0.08-0.87,0.24-1.18c0.16-0.3,0.36-0.55,0.62-0.74
			c0.26-0.19,0.55-0.33,0.88-0.43c0.33-0.1,0.67-0.18,1.01-0.24c0.37-0.08,0.71-0.13,1.04-0.17c0.33-0.04,0.62-0.09,0.87-0.16
			c0.25-0.07,0.45-0.17,0.6-0.31c0.15-0.14,0.22-0.33,0.22-0.6c0-0.3-0.05-0.55-0.16-0.74c-0.11-0.18-0.25-0.33-0.42-0.42
			c-0.17-0.1-0.37-0.16-0.58-0.2c-0.21-0.03-0.43-0.05-0.63-0.05c-0.56,0-1.03,0.11-1.41,0.33c-0.38,0.22-0.58,0.65-0.61,1.27h-1.33
			c0.02-0.52,0.13-0.96,0.31-1.32c0.19-0.36,0.44-0.65,0.75-0.87c0.31-0.22,0.67-0.38,1.07-0.48c0.4-0.1,0.83-0.15,1.29-0.15
			c0.37,0,0.73,0.03,1.09,0.08c0.36,0.05,0.69,0.17,0.98,0.33c0.29,0.17,0.53,0.4,0.71,0.71c0.18,0.3,0.27,0.7,0.27,1.19v4.33
			c0,0.33,0.02,0.56,0.05,0.72c0.04,0.15,0.16,0.23,0.37,0.23c0.12,0,0.25-0.02,0.41-0.06V263.04z M237.56,258.72
			c-0.17,0.13-0.39,0.22-0.66,0.28c-0.27,0.06-0.56,0.11-0.85,0.15c-0.3,0.04-0.6,0.08-0.9,0.13s-0.57,0.13-0.82,0.24
			c-0.24,0.11-0.44,0.26-0.59,0.46c-0.15,0.2-0.23,0.47-0.23,0.82c0,0.23,0.04,0.42,0.13,0.58c0.09,0.16,0.2,0.28,0.34,0.38
			c0.14,0.1,0.31,0.17,0.49,0.21c0.19,0.04,0.39,0.06,0.6,0.06c0.44,0,0.81-0.06,1.13-0.19c0.31-0.12,0.57-0.28,0.77-0.47
			c0.2-0.19,0.34-0.4,0.44-0.62c0.09-0.22,0.14-0.43,0.14-0.63V258.72z"/>
		<path class="st2" d="M242.22,254.63v1.34h0.03c0.55-1.02,1.43-1.54,2.63-1.54c0.53,0,0.98,0.08,1.33,0.23
			c0.36,0.15,0.64,0.37,0.86,0.64c0.22,0.27,0.37,0.6,0.46,0.97c0.09,0.38,0.13,0.79,0.13,1.25v5.55h-1.33v-5.72
			c0-0.52-0.15-0.94-0.44-1.24c-0.29-0.31-0.7-0.46-1.21-0.46c-0.41,0-0.76,0.06-1.06,0.2c-0.3,0.13-0.55,0.32-0.74,0.56
			c-0.2,0.24-0.35,0.52-0.45,0.84c-0.1,0.32-0.15,0.67-0.15,1.05v4.77h-1.33v-8.44H242.22z"/>
		<path class="st2" d="M249.75,253.12v-1.71h1.33v1.71H249.75z M251.09,254.63v8.44h-1.33v-8.44H251.09z"/>
		<path class="st2" d="M256.62,254.63v1.23H255v5.24c0,0.16,0.01,0.29,0.04,0.39c0.03,0.1,0.08,0.17,0.15,0.23
			c0.07,0.05,0.17,0.09,0.31,0.11c0.13,0.02,0.3,0.02,0.51,0.02h0.61v1.22h-1.02c-0.34,0-0.64-0.02-0.89-0.07
			c-0.25-0.05-0.44-0.14-0.6-0.27c-0.15-0.13-0.26-0.32-0.34-0.56c-0.07-0.24-0.11-0.55-0.11-0.95v-5.37h-1.38v-1.23h1.38v-2.53H255
			v2.53H256.62z"/>
		<path class="st2" d="M258.17,253.12v-1.71h1.33v1.71H258.17z M259.5,254.63v8.44h-1.33v-8.44H259.5z"/>
		<path class="st2" d="M262.59,261.19c0.13,0.21,0.29,0.38,0.49,0.51c0.2,0.13,0.43,0.22,0.69,0.27c0.26,0.05,0.52,0.08,0.79,0.08
			c0.21,0,0.43-0.02,0.66-0.05c0.23-0.03,0.44-0.09,0.63-0.18s0.35-0.21,0.48-0.38c0.13-0.17,0.19-0.38,0.19-0.65
			c0-0.36-0.13-0.63-0.39-0.82c-0.26-0.19-0.59-0.33-0.98-0.45s-0.82-0.22-1.28-0.31c-0.46-0.09-0.89-0.22-1.28-0.39
			c-0.39-0.17-0.72-0.41-0.98-0.71c-0.26-0.31-0.39-0.73-0.39-1.27c0-0.42,0.09-0.79,0.27-1.09c0.18-0.3,0.42-0.55,0.71-0.74
			c0.29-0.19,0.61-0.33,0.97-0.42s0.72-0.14,1.07-0.14c0.46,0,0.88,0.04,1.27,0.12c0.39,0.08,0.73,0.22,1.03,0.43
			s0.54,0.47,0.71,0.82s0.28,0.77,0.31,1.28h-1.33c-0.02-0.27-0.09-0.5-0.2-0.68c-0.12-0.18-0.26-0.32-0.44-0.43
			c-0.18-0.11-0.37-0.19-0.59-0.24c-0.21-0.05-0.43-0.07-0.65-0.07c-0.2,0-0.4,0.02-0.6,0.05c-0.2,0.03-0.39,0.09-0.56,0.17
			c-0.17,0.08-0.3,0.19-0.41,0.33c-0.1,0.14-0.16,0.31-0.16,0.53c0,0.24,0.08,0.44,0.24,0.6c0.16,0.16,0.37,0.29,0.62,0.39
			c0.25,0.1,0.53,0.19,0.85,0.26c0.31,0.07,0.63,0.14,0.94,0.22c0.33,0.08,0.66,0.17,0.98,0.28c0.32,0.11,0.6,0.25,0.85,0.43
			c0.25,0.18,0.44,0.41,0.6,0.68c0.15,0.27,0.23,0.61,0.23,1.01c0,0.51-0.1,0.94-0.31,1.27c-0.2,0.34-0.47,0.61-0.8,0.82
			c-0.33,0.21-0.7,0.35-1.11,0.43c-0.41,0.08-0.82,0.12-1.23,0.12c-0.45,0-0.88-0.05-1.29-0.15c-0.41-0.1-0.77-0.26-1.08-0.48
			c-0.31-0.22-0.56-0.52-0.75-0.88c-0.19-0.37-0.29-0.81-0.31-1.33h1.33C262.4,260.72,262.46,260.98,262.59,261.19z"/>
		<path class="st2" d="M275.14,262.54c-0.61,0.48-1.37,0.72-2.29,0.72c-0.65,0-1.21-0.11-1.68-0.33c-0.48-0.22-0.88-0.52-1.2-0.91
			c-0.32-0.39-0.57-0.86-0.73-1.4s-0.25-1.14-0.27-1.78c0-0.64,0.09-1.23,0.28-1.76c0.19-0.53,0.45-1,0.79-1.39
			c0.34-0.39,0.74-0.7,1.21-0.91c0.46-0.22,0.97-0.33,1.53-0.33c0.72,0,1.32,0.16,1.79,0.47c0.48,0.31,0.86,0.7,1.14,1.18
			c0.29,0.48,0.49,1,0.6,1.57c0.11,0.57,0.15,1.11,0.13,1.62h-6.07c-0.01,0.37,0.03,0.72,0.13,1.05c0.09,0.33,0.25,0.63,0.45,0.88
			c0.21,0.26,0.48,0.46,0.8,0.61c0.32,0.15,0.71,0.23,1.14,0.23c0.56,0,1.03-0.14,1.39-0.41c0.36-0.27,0.6-0.69,0.71-1.24h1.32
			C276.14,261.35,275.75,262.06,275.14,262.54z M274.82,257.12c-0.12-0.29-0.28-0.55-0.49-0.76c-0.2-0.21-0.44-0.38-0.72-0.51
			c-0.28-0.13-0.58-0.19-0.92-0.19c-0.34,0-0.66,0.06-0.93,0.19c-0.28,0.12-0.51,0.3-0.71,0.51c-0.2,0.22-0.36,0.47-0.47,0.76
			c-0.12,0.29-0.18,0.6-0.2,0.92h4.65C275.01,257.72,274.94,257.41,274.82,257.12z"/>
		<path class="st2" d="M279.03,254.63v1.78h0.03c0.32-0.69,0.72-1.19,1.19-1.52c0.47-0.33,1.07-0.48,1.79-0.46v1.47
			c-0.53,0-0.99,0.08-1.36,0.23c-0.38,0.15-0.68,0.38-0.91,0.67c-0.23,0.29-0.4,0.65-0.5,1.07c-0.1,0.42-0.16,0.9-0.16,1.45v3.76
			h-1.33v-8.44H279.03z"/>
	</g>
	<g>
		<g>
			<g>
				<linearGradient id="SVGID_1_" gradientUnits="userSpaceOnUse" x1="103.1184" y1="69.2807" x2="180.9221" y2="69.2807">
					<stop  offset="4.048311e-03" style="stop-color:#1A629C"/>
					<stop  offset="0.8927" style="stop-color:#3A9043"/>
				</linearGradient>
				<path class="st3" d="M155.52,38.58c-3.12-3.91-5.91-6.92-6.83-8.7c0,0-1.96-3.3-3.08-6.06c0.45,1.62,1.04,6.41,1.04,6.41
					c0.02,0.15,2.39,13.05-2.01,24.83c-1.42,3.8-5.06,8.72-8.16,12.28c-5.7,6.54-12.61,17.11-10.34,29.63
					c2.45,13.58,9.22,20.02,17.29,24.04c-4.77-2.82-11.36-8.41-12.48-22.82c-0.93-11.86,3.75-19.53,9.17-27.35
					c2.78-4.01,6.25-9.46,7.77-13.53c2.72-7.28,1.83-15.03,1.39-20.54c11.33,24.01,10.57,63.32,10.57,63.32
					c1.08-7.05,2.67-37.19-6.9-60.54c0.07,0.09,0.13,0.17,0.2,0.27c9.58,12.9,22.3,34.1,22.3,52.55c0,22.91-15.44,36.56-33.43,34.35
					c-26.83-3.3-36.93-37.3-19.02-60.88c9.27-12.21,11.87-15.8,16.12-24.24c5.77-11.45,6.09-26.91,0.16-37.59
					c3.17,9.18,3.05,18.24-0.33,28.09c-3.09,8.99-11.99,18.84-18.26,25.14c-9.54,9.58-17.55,21.57-17.56,36.44
					c0,22.34,16.51,40.89,38.89,40.89c20.85,0,39.3-17.61,38.91-41.8C180.61,73.53,165.7,51.36,155.52,38.58z"/>
			</g>
			<g>
				<path class="st1" d="M180.91,92.72c-0.31-19.23-15.21-41.42-25.38-54.19c-3.12-3.91-5.91-6.92-6.83-8.7c0,0-1.92-3.33-3.09-6.06
					c0.4,1.41,1.04,6.41,1.04,6.41c0.02,0.15,2.39,13.05-2.01,24.83c-1.42,3.8-5.06,8.72-8.16,12.28
					c-5.7,6.54-12.6,17.11-10.34,29.63c2.45,13.58,9.22,20.02,17.29,24.04c-4.77-2.82-11.36-8.41-12.48-22.82
					c-0.93-11.86,3.75-19.53,9.18-27.35c2.78-4.01,6.25-9.46,7.77-13.53c2.72-7.28,1.83-15.03,1.39-20.54
					c11.33,24.01,10.57,63.32,10.57,63.32c1.08-7.04,2.67-37.19-6.9-60.54c0.07,0.09,0.13,0.17,0.2,0.26
					c9.58,12.9,22.3,34.1,22.3,52.56L180.91,92.72z"/>
			</g>
		</g>
	</g>
</g>
</svg>
